<svg xmlns="http://www.w3.org/2000/svg" viewBox="0 0 400 320" fill="none" aria-hidden="true">
  <defs>
    <linearGradient id="ag" x1="0" y1="1" x2="0" y2="0">
      <stop offset="0%" stop-color="#7c3aed" stop-opacity="0.2"/>
      <stop offset="100%" stop-color="#a855f7" stop-opacity="0.85"/>
    </linearGradient>
  </defs>
  <rect width="400" height="320" rx="24" fill="#faf5ff"/>
  <rect x="40" y="40" width="320" height="200" rx="12" fill="white" stroke="#e9d5ff" stroke-width="2"/>
  <path d="M56 200 L100 140 L156 168 L220 96 L280 120 L344 72" stroke="#9333ea" stroke-width="3" fill="none" stroke-linecap="round" stroke-linejoin="round"/>
  <path d="M56 200 L100 140 L156 168 L220 96 L280 120 L344 72 V216 H56 Z" fill="url(#ag)"/>
  <rect x="56" y="216" width="32" height="0.01" opacity="0"/>
  <rect x="72" y="228" width="24" height="48" rx="4" fill="#c4b5fd"/>
  <rect x="112" y="212" width="24" height="64" rx="4" fill="#a78bfa"/>
  <rect x="152" y="196" width="24" height="80" rx="4" fill="#8b5cf6"/>
  <rect x="192" y="220" width="24" height="56" rx="4" fill="#7c3aed"/>
  <rect x="232" y="204" width="24" height="72" rx="4" fill="#6d28d9"/>
  <circle cx="220" cy="96" r="6" fill="white" stroke="#a855f7" stroke-width="2"/>
</svg>
